<svg version="1.0" xmlns="http://www.w3.org/2000/svg" width="300" height="300" viewBox="0 0 225 225"><path d="M108 45.5c0 7.3-3.5 11.3-13.1 14.8-9.6 3.4-15.6 7.2-22.4 14.1-10.6 10.8-15.9 23.8-15.9 39.1 0 25.3 16.4 46.9 40.9 54.1 8 2.3 22 2.3 30 0 18.8-5.5 33.6-20.3 39-39.1 2.3-7.9 2.3-22.1 0-30-4.4-15.4-15.3-28.5-29.1-34.9-4.3-2.1-9-4.3-10.4-4.9-1.3-.7-4.2-3.6-6.5-6.5-3.4-4.5-10.1-10.2-11.9-10.2-.4 0-.6 1.6-.6 3.5zm15.7 56.7c8.9 4.2 15.3 15.8 13.9 25.6-1.3 9.7-9.1 18.9-18.1 21.3-5.1 1.4-14.2.6-18.4-1.5-9-4.7-14.8-15.3-13.8-25.1.8-8.1 4.2-13.5 12-19.5 5.5-4.1 16.7-4.5 24.4-.8z"/></svg>